<svg width="25" height="25" viewBox="0 0 25 25" fill="none" xmlns="http://www.w3.org/2000/svg">
<path d="M12.5001 8.33329C10.198 8.33329 8.33341 10.1979 8.33341 12.5C8.33341 14.802 10.198 16.6666 12.5001 16.6666C14.8022 16.6666 16.6667 14.802 16.6667 12.5C16.6667 10.1979 14.8022 8.33329 12.5001 8.33329ZM21.8126 11.4583C21.5766 9.34592 20.6294 7.37656 19.1264 5.8736C17.6235 4.37064 15.6541 3.42341 13.5417 3.18746V1.04163H11.4584V3.18746C9.34604 3.42341 7.37668 4.37064 5.87372 5.8736C4.37076 7.37656 3.42353 9.34592 3.18758 11.4583H1.04175V13.5416H3.18758C3.42353 15.654 4.37076 17.6234 5.87372 19.1263C7.37668 20.6293 9.34604 21.5765 11.4584 21.8125V23.9583H13.5417V21.8125C15.6541 21.5765 17.6235 20.6293 19.1264 19.1263C20.6294 17.6234 21.5766 15.654 21.8126 13.5416H23.9584V11.4583H21.8126V11.4583ZM12.5001 19.7916C8.46883 19.7916 5.20841 16.5312 5.20841 12.5C5.20841 8.46871 8.46883 5.20829 12.5001 5.20829C16.5313 5.20829 19.7917 8.46871 19.7917 12.5C19.7917 16.5312 16.5313 19.7916 12.5001 19.7916Z" fill="#FDEBB1"/>
</svg>
