<svg width="115" height="219" viewBox="0 0 115 219" fill="none" xmlns="http://www.w3.org/2000/svg">
<path d="M67.9261 214.207C67.9483 213.814 67.9607 213.435 67.9854 213.056C67.9212 213.539 67.8866 214.014 67.8223 214.496C67.8396 214.367 67.889 214.291 67.9261 214.207ZM111.114 112.109C111.184 107.036 112.854 100.394 111.359 95.4262C109.33 88.7111 101.667 85.9827 95.7282 83.0379C90.9684 80.6883 86.5893 77.927 82.7983 74.2742C77.1836 68.8693 70.7533 61.7778 72.8613 53.5551C74.7864 46.0356 80.5445 40.4354 83.6608 33.4475C89.2237 21.0029 80.6903 11.7499 69.9402 5.96155C60.8285 1.05049 48.0915 4.21634 39.3703 8.63112C39.2789 8.68521 39.1726 8.72285 39.0787 8.76048C30.1079 14.1349 25.7016 23.7406 30.3427 33.7721C33.5652 40.7153 39.4024 46.2497 41.4412 53.748C43.6654 61.9472 37.3364 69.1115 31.8032 74.5847C28.0691 78.2821 23.7443 81.0999 19.0217 83.506C13.1227 86.5213 5.48393 89.3485 3.56374 96.0824C2.13533 101.071 3.90477 107.687 4.05305 112.765C4.26558 120.017 4.12966 127.287 4.36938 134.538C4.80432 148.258 5.33565 161.968 6.12647 175.657C6.54906 182.844 7.05073 190.021 7.79706 197.183C8.0689 199.655 8.17764 202.042 8.25919 204.509C8.3358 206.92 8.07879 209.717 9.30949 211.937C10.6613 210.94 9.69748 205.481 9.76174 204.025C9.91002 200.125 9.68019 196.228 9.65547 192.344C9.59122 184.035 10.3672 175.694 10.6069 167.396C10.8466 158.644 10.9183 149.888 10.901 141.124C10.9035 135.583 10.4834 130.044 10.5501 124.483C10.555 123.851 10.4883 121.903 10.6563 119.864C10.3376 115.858 10.5007 112.725 11.0691 112.669C11.3706 112.65 11.7363 113.52 12.0724 114.967C12.6927 114.245 13.5453 113.991 14.7439 114.534C14.5857 113.445 14.4967 112.187 14.4621 110.816C14.4399 110.075 14.4102 109.277 14.388 108.478C14.4004 107.664 14.3633 106.857 14.2274 106.166C14.0643 105.436 13.7726 105.011 13.523 104.935C13.3723 104.877 13.1103 104.879 12.836 104.903C12.7149 104.943 12.4629 104.971 12.4381 104.994C12.2923 105.06 11.9785 105.138 11.9785 105.171C11.672 105.328 11.2939 105.759 11.1111 106.26C10.9232 106.765 10.8071 107.332 10.733 107.861C10.6045 108.932 10.5476 109.861 10.4315 110.51C10.3203 111.157 10.1324 111.519 9.9891 111.505C9.83341 111.486 9.71231 111.147 9.55909 110.536C9.42317 109.905 9.23288 108.997 9.15627 107.807C9.14144 107.203 9.14639 106.511 9.35645 105.74C9.55415 104.975 9.96191 104.077 11.0246 103.444C11.3434 103.254 11.4373 103.249 11.6473 103.15C11.9908 103.009 12.1589 102.997 12.4357 102.92C12.9695 102.83 13.5552 102.753 14.2496 102.983C14.9094 103.193 15.4803 103.698 15.8016 104.204C16.1327 104.719 16.2958 105.232 16.407 105.738C16.6146 106.739 16.6023 107.647 16.585 108.466C16.5479 109.28 16.5306 110.075 16.5108 110.827C16.4441 112.326 16.3873 113.659 16.3552 114.741C16.2687 115.832 16.3403 116.794 16.2761 117.432C16.2687 117.455 16.2687 117.481 16.2687 117.505C16.3057 117.684 16.3379 117.846 16.3626 117.973C16.8865 120.358 16.9631 122.82 17.01 125.25C17.1855 135.933 17.361 146.632 17.5364 157.313C17.7218 167.914 17.9294 178.524 18.1098 189.12C18.2037 194.494 18.2902 199.857 18.3717 205.215C18.3816 205.831 18.2457 214.581 19.1724 213.835C20.3463 212.911 19.0884 208.002 19.0291 206.678C18.9698 205.257 18.8536 203.907 18.8536 202.486C18.8512 201.891 18.8437 201.299 18.8561 200.711C18.8586 197.919 18.8685 195.139 18.8734 192.361C18.9055 182.287 18.9327 172.206 18.9599 162.137C19.0044 146.858 19.1403 131.57 19.1008 116.284C19.0835 116.235 19.0983 116.183 19.0958 116.134C19.0958 115.884 19.0983 115.628 19.0983 115.379C19.0909 115.073 19.1798 114.826 19.3108 114.621C19.3948 111.655 19.8224 109.4 20.371 109.4C20.8677 109.39 21.2903 111.248 21.4584 113.819C22.0638 113.829 22.6891 113.944 23.1734 114.132C23.04 113.229 22.9041 112.288 22.7879 111.281C22.5927 110.011 22.6001 108.694 22.2863 107.838C22.0119 106.888 21.5202 105.909 21.2014 105.61C21.1742 105.571 21.1346 105.531 21.1717 105.547C21.1717 105.521 21.2014 105.502 21.2236 105.495C21.2557 105.458 21.2211 105.472 21.1939 105.481C21.1766 105.469 21.1322 105.481 21.0951 105.549C20.9122 105.672 20.7639 105.947 20.6231 106.111C20.3858 106.516 20.1758 106.756 20.0176 106.721C19.8767 106.699 19.7952 106.41 19.7902 105.883C19.8397 105.606 19.8347 105.291 20.0695 104.863C20.109 104.759 20.2005 104.632 20.3166 104.519C20.4526 104.402 20.5563 104.282 20.7961 104.211C21.2285 104.011 21.7599 104.166 22.0342 104.333C23.208 105.055 23.6998 106.036 24.241 107.2C24.4931 107.777 24.6834 108.541 24.7402 109.115C24.8243 109.748 24.9034 110.399 25.0022 111.055C25.1579 112.389 25.2963 113.664 25.3457 114.807C25.3556 115.449 25.3457 116.051 25.3358 116.606C25.7535 117.653 25.9734 118.789 26.1489 119.746C26.8804 123.749 26.5122 127.781 26.7099 131.815C27.1671 141.072 27.3895 150.353 27.6564 159.63C27.7231 161.97 27.7972 164.308 27.8714 166.646C28.2544 179.634 28.677 192.629 28.9118 205.631C28.9563 207.301 29.0749 209.011 29.0057 210.697C28.9563 211.612 28.1976 212.988 28.2742 213.779C28.42 215.43 29.2034 214.254 29.5271 213.278C30.3649 210.636 29.8534 207.484 30.0338 204.765C30.1746 202.35 30.3699 199.925 30.4143 197.507C30.6219 186.095 30.2463 174.666 30.098 163.252C29.9522 152.346 29.8978 141.449 29.794 130.549C29.7669 127.021 29.7965 123.495 29.5222 119.974C29.2182 118.725 28.9563 117.011 28.8401 115.089C28.635 110.966 29.537 107.911 30.1054 107.915C30.6714 107.944 30.8394 110.489 30.9951 113.659C32.253 112.516 33.4862 112.986 34.4574 114.028C34.4747 112.834 34.4994 111.587 34.4425 110.291C34.45 109.52 34.2745 108.833 34.2127 108.134C34.1831 107.774 34.0496 107.487 33.9829 107.163C33.9013 106.874 33.8346 106.582 33.7629 106.311C33.3255 105.154 32.5767 104.658 31.9688 104.698C31.3386 104.728 30.8295 105.359 30.5923 105.81C30.318 106.283 30.1722 106.608 30.0214 106.584C29.8707 106.584 29.71 106.248 29.7446 105.594C29.7545 105.267 29.8583 104.86 30.1054 104.409C30.3699 103.971 30.8542 103.449 31.6203 103.244C32.3691 103.016 33.3107 103.178 34.0101 103.632C34.3684 103.851 34.6748 104.133 34.9566 104.453C35.0876 104.627 35.2185 104.815 35.3569 105.001L35.609 105.46C35.8116 105.921 35.8759 106.196 36.0266 106.598C36.1354 106.97 36.3084 107.367 36.3677 107.756C36.4616 108.534 36.6791 109.36 36.6642 110.178C36.7853 112.819 36.4715 115.157 36.165 117.02C36.2861 117.385 36.3726 117.738 36.3998 117.999C36.8125 122.451 36.0341 127.221 36.0736 131.706C36.1477 137.314 36.4418 142.907 36.7161 148.512C37.2697 159.62 37.8727 170.746 38.3398 181.871C38.582 187.287 38.9131 192.805 39.0441 198.239C39.1726 203.314 38.7896 208.296 39.0886 213.388C41.3894 213.659 39.872 191.956 39.8547 189.708C39.7904 180.655 39.7188 171.602 39.6545 162.549C39.5433 147.152 39.4321 131.76 39.3184 116.371C39.3209 116.042 39.3159 115.684 39.311 115.367C39.3135 115.334 39.3159 115.289 39.311 115.249C39.2962 113.605 42.3457 113.161 44.1102 114.003C44.1177 112.838 43.9224 111.592 43.8755 110.312C43.8433 109.602 43.7544 108.939 43.7173 108.285C43.5863 107.683 43.5147 107.008 43.3837 106.5C43.1539 105.622 42.3803 104.891 41.8614 104.787C41.3968 104.604 40.9544 105.062 40.7172 105.502C40.47 105.928 40.3292 106.215 40.1562 106.208C40.0252 106.196 39.8646 105.9 39.8695 105.291C39.8942 104.99 39.9486 104.59 40.2451 104.148C40.5244 103.705 41.2089 103.261 41.9726 103.291C43.4801 103.36 44.7281 104.406 45.3335 105.916C45.6054 106.615 45.6845 107.266 45.8747 107.995C45.9588 108.713 46.07 109.454 46.1046 110.211C46.2158 113.238 45.8006 115.88 45.4966 117.756C45.4719 117.841 45.4596 117.933 45.4472 118.01C45.5387 119.887 45.3681 121.945 45.4744 123.472C46.2529 136.446 46.6013 149.448 46.8756 162.433C47.1722 175.254 46.5395 200.704 47.9778 201.009C49.4211 201.303 48.22 192.406 48.2843 188.111C48.4276 177.331 48.4572 166.568 48.4449 155.794C48.4177 145.061 48.3436 134.336 48.2497 123.599C48.2299 122.905 47.963 120.784 47.9753 118.598C47.879 118.185 47.7851 117.676 47.6837 117.105C47.3699 115.367 47.0338 112.996 46.9374 110.237C46.9918 108.856 46.93 107.553 47.1573 106.34C47.276 105.74 47.5058 104.971 47.9111 104.437C48.2917 103.87 48.8724 103.451 49.4062 103.258C50.4985 102.875 51.3388 102.972 51.8627 103.073C52.4014 103.178 52.698 103.315 52.6856 103.465C52.6856 103.609 52.3915 103.757 51.9146 103.886C51.4352 104.025 50.7061 104.223 50.1303 104.585C49.5693 104.957 49.3049 105.573 49.2061 106.554C49.0973 107.652 49.211 108.906 49.1542 110.204C49.2011 111.324 49.2382 112.401 49.2752 113.433C49.809 112.848 50.5455 112.558 51.581 112.761C51.8281 112.81 52.0382 112.881 52.2482 112.949C52.4583 109.957 52.9278 107.699 53.4641 107.697C54.0621 107.706 54.5342 110.707 54.4032 114.419C55.9255 116.543 55.0284 120.148 54.9913 122.931C54.9073 133.242 55.4065 143.556 55.7723 153.865C56.2542 167.78 57.3218 203.15 58.4487 203.147C59.5632 203.117 59.7066 167.758 59.9858 153.837C60.2058 143.528 60.5443 133.202 60.3145 122.896C60.2577 120.118 59.2914 116.524 60.7841 114.381C60.5987 110.674 61.0238 107.666 61.6292 107.65C62.163 107.643 62.6647 109.894 62.9069 112.883C63.1318 112.805 63.3443 112.747 63.5865 112.692C64.6121 112.471 65.3535 112.754 65.9145 113.332C65.9169 112.304 65.9367 111.215 65.9713 110.101C65.8922 108.809 65.9861 107.551 65.8725 106.45C65.7538 105.472 65.4795 104.858 64.9111 104.496C64.323 104.133 63.6137 103.95 63.1244 103.818C62.6351 103.694 62.341 103.548 62.336 103.409C62.336 103.256 62.6128 103.12 63.1516 103C63.6977 102.892 64.5132 102.788 65.613 103.164C66.1567 103.35 66.7522 103.757 67.1476 104.322C67.5381 104.848 67.7828 105.615 67.9088 106.21C68.1535 107.426 68.1263 108.729 68.2004 110.108C68.1263 112.864 67.8272 115.244 67.5381 116.978C67.4491 117.557 67.3577 118.065 67.2687 118.476C67.328 120.666 67.0784 122.792 67.0834 123.486C67.1353 134.218 67.2094 144.944 67.3552 155.681C67.4862 166.46 67.6691 177.211 67.9879 187.993C68.109 192.29 67.6716 200.577 68.4648 200.882C69.2729 201.186 68.8998 175.12 68.9986 162.295C69.1024 149.307 69.2482 136.307 69.8537 123.331C69.9278 121.795 69.74 119.744 69.8018 117.86C69.7746 117.787 69.7598 117.695 69.7499 117.611C69.4015 115.736 68.964 113.097 69.0332 110.065C69.0406 109.315 69.1395 108.574 69.2136 107.852C69.3941 107.125 69.4805 106.471 69.7252 105.768C70.3257 104.253 71.5441 103.186 73.0516 103.101C73.8127 103.059 74.5195 103.498 74.7839 103.933C75.1077 104.369 75.1447 104.773 75.1769 105.079C75.2041 105.683 75.0385 105.98 74.905 105.994C74.732 106.01 74.5887 105.721 74.3342 105.295C74.092 104.853 73.6348 104.406 73.1924 104.594C72.6636 104.7 71.9148 105.451 71.6899 106.333C71.5589 106.831 71.5095 107.513 71.3859 108.118C71.3464 108.774 71.2747 109.437 71.2525 110.141C71.2203 111.425 71.245 112.667 71.2796 113.838C73.0145 112.977 76.2791 113.379 76.2964 115.026C76.2914 115.068 76.2914 115.103 76.2939 115.143C76.4397 115.456 76.4273 115.818 76.3013 116.148C76.4175 131.535 76.5262 146.926 76.6399 162.325C76.7017 171.376 76.7659 180.429 76.8376 189.482C76.8499 191.735 75.4512 213.456 77.7322 213.153C77.9744 208.056 77.4109 203.081 77.4653 198.001C77.5147 192.573 77.7174 187.048 77.8731 181.631C78.1918 170.496 78.5971 159.373 78.9901 148.255C79.2026 142.641 79.3855 137.046 79.3657 131.443C79.3682 126.955 78.4958 122.197 78.8467 117.74C78.8591 117.481 78.9382 117.126 79.0543 116.762C78.7256 114.899 78.3871 112.561 78.4612 109.924C78.4415 109.103 78.6367 108.275 78.7355 107.494C78.7726 107.109 78.9407 106.716 79.0444 106.335C79.1853 105.93 79.2446 105.655 79.4448 105.192L79.6919 104.74C79.818 104.545 79.9514 104.354 80.0849 104.178C80.3616 103.851 80.6755 103.571 81.0141 103.341C81.7258 102.887 82.6525 102.708 83.3989 102.927C84.1699 103.12 84.6617 103.637 84.9286 104.07C85.1831 104.529 85.2943 104.926 85.3067 105.253C85.366 105.912 85.1955 106.253 85.062 106.25C84.894 106.271 84.7581 105.949 84.4764 105.486C84.2268 105.032 83.7177 104.409 83.0702 104.383C82.4672 104.354 81.7258 104.863 81.3156 106.02C81.2365 106.293 81.1747 106.589 81.0981 106.876C81.0338 107.205 80.8979 107.497 80.8781 107.847C80.8287 108.553 80.6631 109.244 80.678 110.009C80.6483 111.305 80.6829 112.551 80.7348 113.744C81.6912 112.695 82.9194 112.21 84.1798 113.335C84.296 110.162 84.417 107.61 84.9854 107.579C85.5662 107.565 86.4979 110.618 86.357 114.739C86.2656 116.667 86.0234 118.377 85.7417 119.636C85.5143 123.159 85.5958 126.675 85.6206 130.206C85.6799 141.11 85.7837 152.009 85.796 162.911C85.8183 174.325 85.6082 185.756 85.9913 197.173C86.0629 199.589 86.2928 202.004 86.4806 204.424C86.6832 207.136 86.2186 210.293 87.1058 212.929C87.4296 213.896 88.2327 215.058 88.3662 213.414C88.428 212.617 87.6421 211.255 87.5951 210.337C87.4864 208.653 87.5951 206.941 87.5951 205.269C87.6421 192.267 87.8867 179.267 88.077 166.279C88.1141 163.936 88.1487 161.601 88.1882 159.263C88.3266 149.982 88.4008 140.701 88.7171 131.436C88.8654 127.395 88.4502 123.378 89.1125 119.361C89.2756 118.408 89.4758 117.255 89.8811 116.211C89.8588 115.661 89.844 115.059 89.8391 114.414C89.8835 113.276 90.0096 111.989 90.143 110.653C90.2147 110.002 90.2888 109.346 90.3654 108.713C90.4173 108.141 90.6101 107.372 90.8498 106.791C91.3737 105.622 91.8532 104.632 93.0023 103.901C93.284 103.734 93.8005 103.571 94.2355 103.766C94.4777 103.83 94.5938 103.952 94.7149 104.065C94.8484 104.176 94.9299 104.305 94.967 104.406C95.224 104.83 95.2191 105.145 95.2734 105.418C95.271 105.949 95.1944 106.236 95.056 106.264C94.9077 106.304 94.6927 106.062 94.4381 105.662C94.2923 105.5 94.1465 105.22 93.9711 105.105C93.9216 105.037 93.8772 105.025 93.8524 105.041C93.8253 105.027 93.8005 105.018 93.8253 105.051C93.8524 105.065 93.8772 105.074 93.8945 105.095C93.9167 105.091 93.8796 105.124 93.8574 105.164C93.5534 105.469 93.069 106.453 92.7997 107.407C92.5031 108.264 92.5254 109.585 92.3598 110.856C92.2535 111.862 92.125 112.803 91.999 113.713C92.5006 113.518 93.1111 113.391 93.7141 113.372C93.8401 110.806 94.2503 108.95 94.7421 108.946C95.2858 108.941 95.7479 111.185 95.874 114.151C96.0074 114.353 96.1013 114.609 96.1038 114.91C96.1063 115.16 96.1087 115.411 96.1087 115.663C96.1211 115.715 96.1236 115.764 96.1236 115.814C96.2891 131.1 96.6524 146.388 96.9218 161.662C97.0997 171.731 97.2777 181.814 97.4432 191.881C97.4902 194.656 97.552 197.439 97.5841 200.233C97.5989 200.819 97.6063 201.411 97.6261 202.004C97.6335 203.427 97.5371 204.777 97.4951 206.203C97.4556 207.522 96.2718 212.45 97.4531 213.357C98.3971 214.091 98.1352 205.342 98.1302 204.73C98.1253 199.372 98.15 194 98.1574 188.633C98.1896 178.039 98.239 167.422 98.2711 156.826C98.3008 146.134 98.3131 135.441 98.3428 124.747C98.3354 122.322 98.3873 119.857 98.8667 117.467C98.8939 117.338 98.9334 117.178 98.9606 117.001C98.9581 116.976 98.9581 116.952 98.9581 116.926C98.8865 116.286 98.9482 115.327 98.8346 114.235C98.7975 113.158 98.711 111.822 98.622 110.329C98.5899 109.576 98.5578 108.783 98.5207 107.967C98.4762 107.149 98.4565 106.246 98.6468 105.234C98.7481 104.728 98.9161 104.22 99.2324 103.696C99.5463 103.181 100.112 102.673 100.782 102.456C101.454 102.212 102.062 102.282 102.579 102.369C102.855 102.445 103.023 102.456 103.369 102.593C103.584 102.692 103.688 102.689 103.99 102.88C105.07 103.496 105.487 104.392 105.712 105.154C105.917 105.916 105.932 106.612 105.93 107.212C105.88 108.412 105.705 109.313 105.566 109.945C105.426 110.562 105.307 110.9 105.161 110.931C105 110.94 104.827 110.578 104.694 109.936C104.573 109.287 104.496 108.355 104.355 107.29C104.274 106.756 104.165 106.191 103.948 105.69C103.76 105.187 103.374 104.766 103.07 104.618C103.068 104.578 102.749 104.507 102.606 104.444C102.579 104.42 102.341 104.397 102.208 104.362C101.934 104.336 101.669 104.338 101.523 104.402C101.271 104.479 100.985 104.91 100.844 105.634C100.705 106.326 100.695 107.139 100.698 107.951C100.695 108.75 100.688 109.548 100.678 110.293C100.646 111.66 100.577 112.916 100.443 114.017C101.63 113.45 102.482 113.697 103.11 114.409C103.436 112.963 103.785 112.081 104.086 112.104C104.657 112.147 104.865 115.284 104.605 119.292C104.815 121.327 104.766 123.277 104.783 123.905C104.944 129.46 104.6 135.006 104.664 140.552C104.783 149.314 104.978 158.068 105.359 166.811C105.707 175.109 106.617 183.437 106.661 191.754C106.691 195.633 106.518 199.532 106.735 203.427C106.809 204.89 105.927 210.361 107.291 211.339C108.502 209.103 108.188 206.313 108.243 203.898C108.28 201.437 108.366 199.041 108.586 196.564C109.236 189.393 109.639 182.212 109.948 175.019C110.549 161.326 110.872 147.606 111.102 133.887C111.233 126.638 110.996 119.365 111.114 112.109ZM114.942 97.6888C115.214 127.454 114.537 157.607 112.612 187.325C112.575 187.871 112.57 188.395 112.548 188.932C112.301 195.865 112.281 202.921 110.806 209.742C110.474 211.252 109.501 217.02 106.797 215.994C104.533 215.136 104.869 210.293 104.593 208.463C103.851 203.526 104.066 198.53 104.034 193.56C103.987 185.455 103.159 177.341 102.808 169.231C102.445 160.474 102.171 151.706 102.052 142.944C101.939 134.397 102.855 125.568 101.642 117.046C101.202 118.589 100.98 122.519 100.985 123.046C100.982 126.454 100.965 129.879 100.967 133.28C100.94 144.083 100.91 154.895 100.901 165.71C100.864 182.292 100.715 198.876 100.797 215.465C100.802 216.3 100.095 216.702 99.4054 216.679C97.0182 218.577 94.8484 212.896 94.8187 210.37C94.7693 206.52 94.9917 202.698 94.9126 198.85C94.7545 189.385 94.5938 179.919 94.4307 170.437C94.1193 152.475 93.7017 134.51 93.4916 116.531C92.0237 116.943 91.5418 127.621 91.4973 128.392C91.4503 129.204 91.4157 130.034 91.3836 130.855C91.2922 133.884 91.2205 136.916 91.1464 139.934C90.9536 149.838 90.8202 159.738 90.6892 169.642C90.573 178.775 90.4124 187.918 90.3086 197.041C90.279 199.81 91.9125 217.779 87.7656 217.25C83.5348 216.7 83.5348 208.136 83.3569 205.172C83.1567 201.691 83.3569 198.22 83.2753 194.734C82.828 172.561 83.0776 150.356 82.9689 128.164C82.954 124.768 83.2704 121.32 83.1814 117.942C83.4656 115.564 82.912 115.494 81.4861 117.726C81.5503 118.664 81.6195 119.61 81.6937 120.551C81.7579 122.677 81.9087 124.784 81.9507 126.915C82.2151 138.026 81.5751 149.142 81.1624 160.246C80.7595 171.303 80.4778 182.369 80.1961 193.419C80.0058 200.44 82.6649 211.683 78.654 217.944C78.1795 218.683 76.798 218.878 76.3656 217.977C75.6958 216.57 75.6489 216.483 75.3029 214.952C75.2881 214.86 75.3029 214.785 75.3004 214.71C72.6191 207.325 74.2625 198.725 74.2032 190.983C74.1365 181.866 74.0722 172.74 74.003 163.607C73.9412 154.985 73.8794 146.35 73.8177 137.725C73.7831 133.414 73.7534 129.086 73.7188 124.775C73.704 122.573 73.5186 120.313 73.6719 118.123C73.7213 117.519 74.3243 114.901 72.6265 115.727C71.5861 116.237 72.6141 117.418 72.6908 118.053C73.1109 121.082 72.4362 124.547 72.3201 127.6C72.0606 134.113 71.9098 140.637 71.8134 147.166C71.6157 160.192 71.6182 173.227 71.4353 186.269C71.3365 192.784 71.2006 199.297 70.9559 205.8C70.9139 206.871 70.3084 219.633 67.3898 217.991C64.6195 216.439 65.828 210.681 65.9293 208.258C66.0949 203.768 65.692 199.283 65.5413 194.802C64.8889 174.332 64.6467 153.834 64.5009 133.358C64.4762 130.069 64.4515 126.777 64.4366 123.5C64.4268 122.103 65.0668 118.671 63.9893 117.462C63.458 116.881 63.1219 116.879 62.9168 117.171C62.8525 117.726 62.7784 118.232 62.6721 118.681C62.7364 121.647 63.0082 124.615 63.0058 127.583C62.9983 137.147 62.813 146.717 62.5807 156.288C62.0691 176.722 60.2503 197.166 60.3071 217.594C60.3096 218.675 59.1407 219.035 58.3597 218.664C57.5837 219.045 56.3901 218.699 56.3802 217.619C56.143 197.187 54.0226 176.774 53.2318 156.344C52.8586 146.781 52.5201 137.217 52.3718 127.649C52.3397 124.678 52.5645 121.713 52.567 118.742C52.478 118.29 52.3817 117.792 52.31 117.234C52.1073 116.952 51.7614 116.95 51.2523 117.545C50.1797 118.758 50.8643 122.188 50.8939 123.58C50.9112 126.861 50.9384 130.154 50.9582 133.438C51.1238 153.917 51.1683 174.412 50.8149 194.892C50.7284 199.372 50.4022 203.862 50.6394 208.35C50.758 210.773 52.0703 216.512 49.3173 218.102C46.4135 219.774 45.6326 207.021 45.5708 205.953C45.2322 199.459 45.0049 192.946 44.8096 186.429C44.434 173.394 44.2659 160.361 43.8631 147.336C43.6704 140.811 43.4455 134.289 43.0871 127.781C42.9314 124.726 42.2246 121.268 42.5953 118.236C42.6695 117.599 43.7321 116.409 42.6843 115.915C40.9766 115.101 41.723 117.716 41.7749 118.319C41.9652 120.504 42.0096 122.766 42.0245 124.968C42.0541 129.284 42.0887 133.607 42.1159 137.918C42.1777 146.541 42.2469 155.177 42.3087 163.8C42.3729 172.938 42.4372 182.064 42.5113 191.175C42.5607 198.916 44.1177 207.499 41.5426 214.917C41.545 214.992 41.3622 215.065 41.3449 215.162C41.0285 216.693 40.9791 216.777 40.3292 218.191C39.9115 219.104 38.5251 218.922 38.0531 218.198C33.9409 211.989 36.4492 200.704 36.1576 193.69C35.693 182.64 35.2605 171.576 34.6897 160.531C34.1188 149.434 33.3132 138.318 33.417 127.205C33.4343 125.083 33.543 122.966 33.5801 120.849C33.6517 119.901 33.7012 118.961 33.7555 118.015C32.2975 115.797 31.7365 115.875 32.0602 118.253C32.0133 121.637 32.3864 125.076 32.421 128.475C32.6336 150.664 33.2168 172.862 33.0759 195.037C33.0636 198.528 33.2959 201.992 33.1501 205.478C33.0191 208.442 33.1426 217.008 28.9241 217.61C24.7897 218.189 26.1538 200.198 26.0772 197.434C25.8573 188.311 25.5508 179.171 25.3012 170.045C25.0343 160.138 24.7501 150.243 24.4091 140.336C24.2929 137.323 24.1966 134.294 24.0409 131.264C23.9964 130.446 23.9519 129.618 23.8926 128.802C23.8333 128.035 23.2006 117.366 21.7327 116.971C21.7969 134.948 21.6388 152.915 21.5819 170.882C21.5424 180.365 21.5202 189.835 21.5004 199.297C21.4905 203.145 21.7673 206.965 21.7673 210.815C21.7722 213.343 19.6889 219.052 17.2695 217.18C16.5825 217.205 15.8708 216.82 15.8609 215.978C15.7027 199.393 15.3197 182.816 15.0503 166.237C14.8625 155.42 14.6796 144.607 14.5091 133.814C14.4473 130.401 14.3905 126.983 14.3435 123.58C14.3287 123.051 14.0593 119.114 13.5997 117.582C12.4999 126.118 13.5403 134.938 13.5527 143.485C13.5601 152.249 13.4267 161.013 13.1721 169.784C12.9448 177.889 12.2479 186.015 12.3096 194.127C12.3418 199.09 12.6284 204.081 11.9686 209.025C11.7338 210.864 12.1243 215.702 9.87048 216.585C7.18171 217.643 6.12647 211.892 5.7706 210.385C4.20133 203.575 4.07035 196.529 3.72931 189.604C3.69719 189.063 3.68236 188.534 3.64035 187.991C1.2852 158.296 0.178064 128.155 0.000130605 98.3944C-0.044353 88.196 11.2841 83.887 19.2169 79.8345C26.2972 76.2335 32.1863 70.4098 36.469 64.0146C40.1265 58.5367 38.2385 52.826 35.1864 47.6397C30.8765 40.2943 25.0071 33.9438 24.9973 25.1072C24.975 16.5575 31.1977 7.79379 39.5235 4.76201C48.4696 1.49973 60.0254 -2.14829 69.4336 1.56088C73.3877 3.12264 78.2734 6.64835 81.4194 9.43552C85.8825 13.4152 88.8283 18.8225 88.8926 24.7144C88.9988 33.551 83.2358 39.9721 79.0222 47.3716C76.0641 52.5955 74.2427 58.3227 77.9917 63.7583C82.3609 70.1064 88.3439 75.8525 95.4662 79.3664C103.466 83.3296 114.841 87.4951 114.942 97.6888Z" fill="black" fill-opacity="0.6"/>
</svg>
