<svg width="25" height="25" viewBox="0 0 25 25" fill="none" xmlns="http://www.w3.org/2000/svg">
<path d="M21.875 17.1042V20.7875C21.8751 21.0512 21.7752 21.3052 21.5954 21.4981C21.4156 21.6911 21.1693 21.8086 20.9062 21.8271C20.451 21.8583 20.0792 21.875 19.7917 21.875C10.5865 21.875 3.125 14.4135 3.125 5.20833C3.125 4.92083 3.14063 4.54896 3.17292 4.09375C3.19138 3.83067 3.30894 3.58439 3.50188 3.40459C3.69482 3.2248 3.94877 3.12488 4.2125 3.125H7.89583C8.02504 3.12487 8.14968 3.17277 8.24555 3.2594C8.34142 3.34602 8.40166 3.46519 8.41458 3.59375C8.43854 3.83333 8.46042 4.02396 8.48125 4.16875C8.68826 5.61346 9.1125 7.01858 9.73958 8.33646C9.83854 8.54479 9.77396 8.79375 9.58646 8.92708L7.33854 10.5333C8.71297 13.7359 11.2652 16.2881 14.4677 17.6625L16.0719 15.4187C16.1374 15.3271 16.2331 15.2613 16.3422 15.233C16.4513 15.2046 16.5668 15.2154 16.6688 15.2635C17.9865 15.8894 19.3912 16.3126 20.8354 16.5187C20.9802 16.5396 21.1708 16.5625 21.4083 16.5854C21.5367 16.5986 21.6556 16.6589 21.742 16.7548C21.8284 16.8506 21.8762 16.9751 21.876 17.1042H21.875Z" fill="#FDEBB1"/>
</svg>
