<svg width="20" height="20" viewBox="0 0 20 20" fill="none" xmlns="http://www.w3.org/2000/svg">
<path d="M14.5601 11.985C14.3126 11.8609 13.0951 11.2625 12.8684 11.1792C12.6409 11.0967 12.4759 11.0559 12.3101 11.3042C12.1459 11.5517 11.6709 12.1092 11.5268 12.2742C11.3826 12.44 11.2376 12.46 10.9901 12.3367C10.7426 12.2117 9.94427 11.9509 8.99844 11.1075C8.26261 10.4509 7.76511 9.64004 7.62094 9.3917C7.47677 9.1442 7.60594 9.01003 7.72927 8.8867C7.84094 8.77587 7.97761 8.59753 8.10094 8.45337C8.22511 8.30837 8.26594 8.20503 8.34927 8.0392C8.43177 7.8742 8.39094 7.73003 8.32844 7.60587C8.26594 7.4817 7.77094 6.26253 7.56511 5.7667C7.36344 5.2842 7.15927 5.35003 7.00761 5.3417C6.86344 5.33503 6.69844 5.33337 6.53261 5.33337C6.36761 5.33337 6.09927 5.39503 5.87261 5.64337C5.64594 5.89087 5.00594 6.49003 5.00594 7.7092C5.00594 8.92753 5.89344 10.105 6.01677 10.2709C6.14094 10.4359 7.76344 12.9375 10.2476 14.01C10.8384 14.265 11.2993 14.4175 11.6593 14.5309C12.2526 14.72 12.7926 14.6934 13.2184 14.6292C13.6943 14.5584 14.6834 14.03 14.8901 13.4517C15.0968 12.8734 15.0968 12.3775 15.0343 12.2742C14.9726 12.1709 14.8076 12.1092 14.5593 11.985H14.5601ZM10.0418 18.1542H10.0384C8.56325 18.1543 7.11517 17.7577 5.84594 17.0059L5.54511 16.8275L2.42761 17.6459L3.25927 14.6059L3.06344 14.2942C2.23881 12.9811 1.80256 11.4614 1.80511 9.91087C1.80594 5.3692 5.50177 1.6742 10.0451 1.6742C12.2451 1.6742 14.3134 2.53253 15.8684 4.0892C16.6357 4.85305 17.2438 5.76147 17.6576 6.7619C18.0714 7.76233 18.2827 8.8349 18.2793 9.91753C18.2768 14.4592 14.5818 18.1542 10.0418 18.1542V18.1542ZM17.0526 2.9067C16.1344 1.98247 15.042 1.24965 13.8385 0.750701C12.6351 0.251754 11.3446 -0.00339687 10.0418 3.4148e-05C4.57927 3.4148e-05 0.133441 4.44587 0.130941 9.91003C0.130941 11.6567 0.586774 13.3617 1.45427 14.8642L0.0476074 20L5.30177 18.6217C6.75477 19.4133 8.38297 19.8282 10.0376 19.8284H10.0418C15.5034 19.8284 19.9501 15.3825 19.9526 9.91753C19.9566 8.61526 19.7024 7.32512 19.2046 6.12173C18.7069 4.91834 17.9754 3.82559 17.0526 2.9067V2.9067Z" fill="#555555"/>
</svg>
